HIERARCHY
ROOT Pelvis
{
	OFFSET 0.000000 0.000000 0.000000
	CHANNELS 6 Xposition Yposition Zposition Xrotation Yrotation Zrotation
	JOINT LeftUpLeg_virtual
	{
		OFFSET 0.000000 0.000000 0.000000
		CHANNELS 3 Xrotation Yrotation Zrotation
		JOINT LeftUpLeg
		{
			OFFSET 18.735201 -5.666702 -4.541200
			CHANNELS 3 Xrotation Yrotation Zrotation
			JOINT LeftLeg
			{
				OFFSET -0.021200 -31.938179 0.493100
				CHANNELS 3 Xrotation Yrotation Zrotation
				JOINT LeftFoot
				{
					OFFSET 0.021200 -31.938179 -4.336299
					CHANNELS 3 Xrotation Yrotation Zrotation
					JOINT LeftToeBase
					{
						OFFSET 0.943001 -26.722000 15.023500
						CHANNELS 3 Xrotation Yrotation Zrotation
						End Site
						{
							OFFSET 0 0 0
						}
					}
				}
			}
		}
	}
	JOINT RightUpLeg_virtual
	{
		OFFSET 0.000000 0.000000 0.000000
		CHANNELS 3 Xrotation Yrotation Zrotation
		JOINT RightUpLeg
		{
			OFFSET -18.735201 -5.666702 -4.541200
			CHANNELS 3 Xrotation Yrotation Zrotation
			JOINT RightLeg
			{
				OFFSET 0.018946 -31.938133 0.493100
				CHANNELS 3 Xrotation Yrotation Zrotation
				JOINT RightFoot
				{
					OFFSET -0.018946 -31.938126 -4.336299
					CHANNELS 3 Xrotation Yrotation Zrotation
					JOINT RightToeBase
					{
						OFFSET -0.943001 -26.722004 15.023500
						CHANNELS 3 Xrotation Yrotation Zrotation
						End Site
						{
							OFFSET 0 0 0
						}
					}
				}
			}
		}
	}
	JOINT Hips_virtual
	{
		OFFSET 0.000000 0.000000 0.000000
		CHANNELS 3 Xrotation Yrotation Zrotation
		JOINT Hips
		{
			OFFSET -0.000000 -0.000000 -0.000000
			CHANNELS 3 Xrotation Yrotation Zrotation
			JOINT Spine
			{
				OFFSET 0.000000 10.199997 -0.299500
				CHANNELS 3 Xrotation Yrotation Zrotation
				JOINT Spine1
				{
					OFFSET 0.000000 11.900002 -1.516600
					CHANNELS 3 Xrotation Yrotation Zrotation
					JOINT Spine2
					{
						OFFSET 0.000000 13.600006 -2.842500
						CHANNELS 3 Xrotation Yrotation Zrotation
						JOINT Neck_virtual
						{
							OFFSET 0.000000 0.000000 0.000000
							CHANNELS 3 Xrotation Yrotation Zrotation
							JOINT Neck
							{
								OFFSET 0.000000 9.624100 -2.890100
								CHANNELS 3 Xrotation Yrotation Zrotation
								JOINT Head
								{
									OFFSET 0.000000 14.068802 -1.351900
									CHANNELS 3 Xrotation Yrotation Zrotation
									End Site
									{
										OFFSET 0 0 0
									}
								}
							}
						}
						JOINT LeftShoulder_virtual
						{
							OFFSET 0.000000 0.000000 0.000000
							CHANNELS 3 Xrotation Yrotation Zrotation
							JOINT LeftShoulder
							{
								OFFSET 15.263000 10.923401 -0.547700
								CHANNELS 3 Xrotation Yrotation Zrotation
								JOINT LeftArm
								{
									OFFSET 25.438599 -2.830597 -13.032500
									CHANNELS 3 Xrotation Yrotation Zrotation
									JOINT LeftForeArm
									{
										OFFSET 29.960503 0.000000 0.000000
										CHANNELS 3 Xrotation Yrotation Zrotation
										JOINT LeftHand
										{
											OFFSET 27.849251 0.000000 0.000000
											CHANNELS 3 Xrotation Yrotation Zrotation
											End Site
											{
												OFFSET 0 0 0
											}
										}
									}
								}
							}
						}
						JOINT RightShoulder_virtual
						{
							OFFSET 0.000000 0.000000 0.000000
							CHANNELS 3 Xrotation Yrotation Zrotation
							JOINT RightShoulder
							{
								OFFSET -15.263000 10.923401 -0.547700
								CHANNELS 3 Xrotation Yrotation Zrotation
								JOINT RightArm
								{
									OFFSET -25.438599 -2.830597 -13.032500
									CHANNELS 3 Xrotation Yrotation Zrotation
									JOINT RightForeArm
									{
										OFFSET -29.960503 0.000000 0.000000
										CHANNELS 3 Xrotation Yrotation Zrotation
										JOINT RightHand
										{
											OFFSET -27.849251 0.000000 0.000000
											CHANNELS 3 Xrotation Yrotation Zrotation
											End Site
											{
												OFFSET 0 0 0
											}
										}
									}
								}
							}
						}
					}
				}
			}
		}
	}
}
MOTION
Frames: 10
Frame Time: 0.03333333
0.584307 79.158318 -1.904718 0.000000 0.000000 0.000000 -11.643227 4.205877 0.346039 -37.135650 -6.144025 16.411025 74.830255 -1.966064 0.236349 -25.217233 -2.444750 -14.190721 0.000000 0.000000 0.000000 -11.643227 4.205877 0.346039 -29.901158 -3.768743 -21.868729 75.942537 1.645896 -0.345650 -32.358673 -3.647117 13.702831 0.000000 0.000000 0.000000 -11.643227 4.205877 0.346039 0.000001 0.000000 0.000000 23.956305 0.086081 0.833559 13.992116 -0.012110 0.874928 0.000000 0.000000 0.000000 13.993085 -0.019271 0.870005 3.421878 -0.204106 -0.250901 0.000000 0.000000 0.000000 13.993085 -0.019271 0.870005 1.274360 -20.464772 -8.784592 -24.361973 0.125575 -58.409531 -134.037135 -77.572425 -130.766294 0.000000 0.000000 0.000000 13.993085 -0.019271 0.870005 4.281750 6.062522 24.486797 -20.183595 30.544015 38.966919 -101.168564 66.637375 94.218655 0.000000 0.000000 0.000000 
0.537150 79.476883 -1.632299 0.000000 0.000000 0.000000 -12.233263 4.229029 0.329640 -35.774953 -6.166359 16.453950 74.206003 -1.956553 0.232955 -25.344517 -2.281874 -14.279476 0.000000 0.000000 0.000000 -12.233263 4.229029 0.329640 -28.538858 -4.112464 -21.694735 75.152927 1.648227 -0.339971 -32.394600 -3.712675 13.646456 0.000000 0.000000 0.000000 -12.233263 4.229029 0.329640 0.000000 0.000000 0.000000 23.831100 0.076083 0.817946 13.805197 -0.026556 0.877420 0.000000 0.000000 0.000000 13.806111 -0.034361 0.873753 3.216229 -0.222854 -0.258420 0.000000 0.000000 0.000000 13.806111 -0.034361 0.873753 1.202831 -20.287496 -9.383894 -23.683024 -0.501276 -58.145059 -129.876867 -77.684686 -126.406174 0.000000 0.000000 0.000000 13.806111 -0.034361 0.873753 4.360494 5.935283 25.053795 -19.084848 29.887685 38.977239 -103.118235 67.822870 95.667188 0.000000 0.000000 0.000000 
0.478187 79.755890 -1.367811 0.000000 0.000000 0.000000 -12.400174 4.261244 0.336414 -34.902280 -6.160353 16.452961 73.543188 -1.934293 0.230246 -25.374942 -2.147825 -14.367843 0.000000 0.000000 0.000000 -12.400174 4.261244 0.336414 -27.694197 -4.387199 -21.548832 74.446835 1.624990 -0.335057 -32.410624 -3.779507 13.591837 0.000000 0.000000 0.000000 -12.400174 4.261244 0.336414 0.000001 -0.000001 0.000000 23.645234 0.052605 0.807724 13.485199 -0.074092 0.867700 0.000000 0.000000 0.000000 13.486087 -0.083624 0.864977 3.009986 -0.222181 -0.283306 0.000000 0.000000 0.000000 13.486087 -0.083624 0.864977 1.157235 -20.150262 -9.778062 -22.947110 -1.113762 -58.002909 -128.515992 -78.463874 -124.614752 0.000000 0.000000 0.000000 13.486087 -0.083624 0.864977 4.416291 5.793504 25.390707 -17.739857 29.670171 39.116753 -104.281566 68.988626 96.225918 0.000000 0.000000 0.000000 
0.408647 80.021317 -1.095148 0.000000 0.000000 0.000000 -12.415270 4.298800 0.359846 -34.197620 -6.112912 16.457255 72.851713 -1.936343 0.227278 -25.370394 -2.036023 -14.442606 0.000000 0.000000 0.000000 -12.415270 4.298800 0.359846 -27.030218 -4.654808 -21.428151 73.773433 1.621185 -0.329879 -32.435496 -3.852121 13.516361 0.000000 0.000000 0.000000 -12.415270 4.298800 0.359846 0.000000 0.000000 0.000000 23.415072 0.009001 0.804981 13.067815 -0.162275 0.825651 0.000000 0.000000 0.000000 13.068607 -0.171245 0.822490 2.798000 -0.213688 -0.319595 0.000000 0.000000 0.000000 13.068607 -0.171245 0.822490 1.128236 -20.026950 -10.044965 -22.214340 -1.700951 -57.924628 -130.356988 -79.992382 -125.863639 0.000000 0.000000 0.000000 13.068607 -0.171245 0.822490 4.462494 5.633525 25.560928 -16.203652 29.709093 39.388195 -105.211886 70.240791 96.452072 0.000000 0.000000 0.000000 
0.334157 80.303421 -0.828465 0.000000 0.000000 0.000000 -12.536331 4.303447 0.380396 -33.352907 -6.033108 16.497222 72.127925 -1.938062 0.224085 -25.366657 -1.929657 -14.517997 0.000000 0.000000 0.000000 -12.536331 4.303447 0.380396 -26.248197 -4.901922 -21.269665 73.061810 1.617572 -0.324425 -32.433126 -3.929788 13.432567 0.000000 0.000000 0.000000 -12.536331 4.303447 0.380396 0.000000 0.000000 0.000000 23.209949 -0.027564 0.788090 12.703022 -0.226609 0.772104 0.000000 0.000000 0.000000 12.703646 -0.233558 0.766655 2.574856 -0.210713 -0.343554 0.000000 0.000000 0.000000 12.703646 -0.233558 0.766655 1.104430 -19.890669 -10.278945 -21.196859 -2.412174 -57.702019 -130.960340 -81.096250 -125.841441 0.000000 0.000000 0.000000 12.703646 -0.233558 0.766655 4.503887 5.478727 25.672287 -14.594897 29.842118 39.506145 -105.759066 71.476823 96.313303 0.000000 0.000000 0.000000 
0.255056 80.610764 -0.572115 0.000000 0.000000 0.000000 -12.826189 4.259264 0.395156 -32.288254 -5.912709 16.581852 71.362950 -1.933958 0.220681 -25.369626 -1.824767 -14.596608 0.000000 0.000000 0.000000 -12.826189 4.259264 0.395156 -25.275836 -5.111773 -21.053640 72.293939 1.603997 -0.318769 -32.390888 -4.013629 13.346106 0.000000 0.000000 0.000000 -12.826189 4.259264 0.395156 0.000001 0.000000 0.000000 23.048974 -0.051270 0.748695 12.432209 -0.260495 0.712821 0.000000 0.000000 0.000000 12.432762 -0.268741 0.707648 2.339245 -0.222106 -0.348200 0.000000 0.000000 0.000000 12.432762 -0.268741 0.707648 1.084321 -19.739508 -10.491438 -19.739978 -3.328596 -57.227160 -128.509463 -81.493514 -122.724265 0.000000 0.000000 0.000000 12.432762 -0.268741 0.707648 4.539590 5.334781 25.736216 -12.880559 30.006151 39.327703 -104.614265 72.757327 94.480115 0.000000 0.000000 0.000000 
0.175746 80.922195 -0.323879 0.000000 0.000000 0.000000 -13.166492 4.216633 0.399994 -31.178253 -5.794245 16.681016 70.592040 -1.928973 0.217163 -25.362456 -1.728945 -14.674568 0.000000 0.000000 0.000000 -13.166492 4.216633 0.399994 -24.245450 -5.329245 -20.821548 71.500490 1.590965 -0.312915 -32.329614 -4.097349 13.256037 0.000000 0.000000 0.000000 -13.166492 4.216633 0.399994 0.000000 0.000000 0.000000 22.904889 -0.067810 0.709635 12.195144 -0.281553 0.670983 0.000000 0.000000 0.000000 12.195634 -0.290508 0.666839 2.094565 -0.238866 -0.350750 0.000000 0.000000 0.000000 12.195634 -0.290508 0.666839 1.067494 -19.566469 -10.690706 -18.296509 -4.238711 -56.730496 -125.598559 -81.931869 -119.149331 0.000000 0.000000 0.000000 12.195634 -0.290508 0.666839 4.572038 5.202212 25.784063 -11.288747 30.124618 39.155781 -102.578076 73.922086 91.818807 0.000000 0.000000 0.000000 
0.103681 81.223602 -0.086508 0.000000 0.000000 0.000000 -13.507741 4.223873 0.381974 -30.123221 -5.735751 16.774398 69.860445 -1.921488 0.213759 -25.340106 -1.645292 -14.751967 0.000000 0.000000 0.000000 -13.507741 4.223873 0.381974 -23.205827 -5.602094 -20.591912 70.690395 1.576973 -0.306862 -32.259673 -4.174038 13.169623 0.000000 0.000000 0.000000 -13.507741 4.223873 0.381974 -0.000001 0.000000 0.000000 22.771256 -0.070044 0.687388 11.976398 -0.276984 0.668395 0.000000 0.000000 0.000000 11.976812 -0.282782 0.662693 1.841454 -0.250408 -0.364080 0.000000 0.000000 0.000000 11.976812 -0.282782 0.662693 1.049766 -19.352313 -10.917822 -17.305596 -4.924189 -56.460557 -122.543593 -82.847469 -115.538770 0.000000 0.000000 0.000000 11.976812 -0.282782 0.662693 4.601850 5.097913 25.877582 -10.134776 29.955871 39.258165 -101.859280 74.637213 90.661957 0.000000 0.000000 0.000000 
0.036817 81.517174 0.140373 0.000000 0.000000 0.000000 -13.853847 4.273302 0.349659 -29.111072 -5.718669 16.865817 69.157175 -1.918378 0.210348 -25.301483 -1.574014 -14.824593 0.000000 0.000000 0.000000 -13.853847 4.273302 0.349659 -22.154029 -5.914960 -20.362500 69.866271 1.558602 -0.300769 -32.181034 -4.246838 13.088436 0.000000 0.000000 0.000000 -13.853847 4.273302 0.349659 0.000000 0.000000 0.000000 22.648258 -0.059871 0.673474 11.776395 -0.256764 0.672952 0.000000 0.000000 0.000000 11.776790 -0.264247 0.668559 1.581631 -0.259187 -0.382552 0.000000 0.000000 0.000000 11.776790 -0.264247 0.668559 1.032814 -19.106044 -11.155844 -16.619771 -5.449996 -56.372833 -118.529983 -84.095447 -111.054443 0.000000 0.000000 0.000000 11.776790 -0.264247 0.668559 4.630546 5.011125 26.003534 -9.306272 29.315134 39.517176 -101.900186 75.083976 90.412116 0.000000 0.000000 0.000000 
-0.029459 81.785599 0.355062 0.000000 0.000000 0.000000 -14.089967 4.350571 0.332246 -28.269036 -5.717361 16.925130 68.476854 -1.914200 0.207210 -25.229858 -1.515282 -14.893694 0.000000 0.000000 0.000000 -14.089967 4.350571 0.332246 -21.263912 -6.236256 -20.178781 69.100006 1.554346 -0.294714 -32.112015 -4.311864 13.002138 0.000000 0.000000 0.000000 -14.089967 4.350571 0.332246 0.000001 0.000000 0.000000 22.515159 -0.056610 0.667829 11.550800 -0.251856 0.672137 0.000000 0.000000 0.000000 11.551195 -0.260866 0.668654 1.329367 -0.264083 -0.391528 0.000000 0.000000 0.000000 11.551195 -0.260866 0.668654 1.022392 -18.866852 -11.340563 -16.011951 -5.978569 -56.423336 -113.352112 -85.441814 -105.439358 0.000000 0.000000 0.000000 11.551195 -0.260866 0.668654 4.677544 4.874333 26.212307 -8.719997 28.646223 39.829012 -102.035807 76.031501 90.418003 0.000000 0.000000 0.000000 
